HIERARCHY
ROOT Pelvis
{
	OFFSET 0.000000 0.000000 0.000000
	CHANNELS 6 Xposition Yposition Zposition Xrotation Yrotation Zrotation
	JOINT LeftUpLeg_virtual
	{
		OFFSET 0.000000 0.000000 0.000000
		CHANNELS 3 Xrotation Yrotation Zrotation
		JOINT LeftUpLeg
		{
			OFFSET 18.735201 -5.666702 -4.541200
			CHANNELS 3 Xrotation Yrotation Zrotation
			JOINT LeftLeg
			{
				OFFSET -0.021200 -31.938179 0.493100
				CHANNELS 3 Xrotation Yrotation Zrotation
				JOINT LeftFoot
				{
					OFFSET 0.021200 -31.938179 -4.336299
					CHANNELS 3 Xrotation Yrotation Zrotation
					JOINT LeftToeBase
					{
						OFFSET 0.943001 -26.722000 15.023500
						CHANNELS 3 Xrotation Yrotation Zrotation
						End Site
						{
							OFFSET 0 0 0
						}
					}
				}
			}
		}
	}
	JOINT RightUpLeg_virtual
	{
		OFFSET 0.000000 0.000000 0.000000
		CHANNELS 3 Xrotation Yrotation Zrotation
		JOINT RightUpLeg
		{
			OFFSET -18.735201 -5.666702 -4.541200
			CHANNELS 3 Xrotation Yrotation Zrotation
			JOINT RightLeg
			{
				OFFSET 0.018946 -31.938133 0.493100
				CHANNELS 3 Xrotation Yrotation Zrotation
				JOINT RightFoot
				{
					OFFSET -0.018946 -31.938126 -4.336299
					CHANNELS 3 Xrotation Yrotation Zrotation
					JOINT RightToeBase
					{
						OFFSET -0.943001 -26.722004 15.023500
						CHANNELS 3 Xrotation Yrotation Zrotation
						End Site
						{
							OFFSET 0 0 0
						}
					}
				}
			}
		}
	}
	JOINT Hips_virtual
	{
		OFFSET 0.000000 0.000000 0.000000
		CHANNELS 3 Xrotation Yrotation Zrotation
		JOINT Hips
		{
			OFFSET -0.000000 -0.000000 -0.000000
			CHANNELS 3 Xrotation Yrotation Zrotation
			JOINT Spine
			{
				OFFSET 0.000000 10.199997 -0.299500
				CHANNELS 3 Xrotation Yrotation Zrotation
				JOINT Spine1
				{
					OFFSET 0.000000 11.900002 -1.516600
					CHANNELS 3 Xrotation Yrotation Zrotation
					JOINT Spine2
					{
						OFFSET 0.000000 13.600006 -2.842500
						CHANNELS 3 Xrotation Yrotation Zrotation
						JOINT Neck_virtual
						{
							OFFSET 0.000000 0.000000 0.000000
							CHANNELS 3 Xrotation Yrotation Zrotation
							JOINT Neck
							{
								OFFSET 0.000000 9.624100 -2.890100
								CHANNELS 3 Xrotation Yrotation Zrotation
								JOINT Head
								{
									OFFSET 0.000000 14.068802 -1.351900
									CHANNELS 3 Xrotation Yrotation Zrotation
									End Site
									{
										OFFSET 0 0 0
									}
								}
							}
						}
						JOINT LeftShoulder_virtual
						{
							OFFSET 0.000000 0.000000 0.000000
							CHANNELS 3 Xrotation Yrotation Zrotation
							JOINT LeftShoulder
							{
								OFFSET 15.263000 10.923401 -0.547700
								CHANNELS 3 Xrotation Yrotation Zrotation
								JOINT LeftArm
								{
									OFFSET 25.438599 -2.830597 -13.032500
									CHANNELS 3 Xrotation Yrotation Zrotation
									JOINT LeftForeArm
									{
										OFFSET 29.960503 0.000000 0.000000
										CHANNELS 3 Xrotation Yrotation Zrotation
										JOINT LeftHand
										{
											OFFSET 27.849251 0.000000 0.000000
											CHANNELS 3 Xrotation Yrotation Zrotation
											End Site
											{
												OFFSET 0 0 0
											}
										}
									}
								}
							}
						}
						JOINT RightShoulder_virtual
						{
							OFFSET 0.000000 0.000000 0.000000
							CHANNELS 3 Xrotation Yrotation Zrotation
							JOINT RightShoulder
							{
								OFFSET -15.263000 10.923401 -0.547700
								CHANNELS 3 Xrotation Yrotation Zrotation
								JOINT RightArm
								{
									OFFSET -25.438599 -2.830597 -13.032500
									CHANNELS 3 Xrotation Yrotation Zrotation
									JOINT RightForeArm
									{
										OFFSET -29.960503 0.000000 0.000000
										CHANNELS 3 Xrotation Yrotation Zrotation
										JOINT RightHand
										{
											OFFSET -27.849251 0.000000 0.000000
											CHANNELS 3 Xrotation Yrotation Zrotation
											End Site
											{
												OFFSET 0 0 0
											}
										}
									}
								}
							}
						}
					}
				}
			}
		}
	}
}
MOTION
Frames: 7
Frame Time: 0.03333333
107.658722 87.431549 210.858215 0.000000 0.000000 0.000000 -94.635754 6.487593 108.502514 -97.862705 -26.915580 61.287089 87.657432 -5.718122 -3.461817 23.818615 -5.873072 -15.789811 0.000000 0.000000 0.000000 -114.998474 48.754693 102.939721 -88.178446 7.927240 -3.378151 64.885458 7.673275 0.628956 6.499116 5.810459 19.973531 0.000000 0.000000 0.000000 -9.610314 -0.475544 14.581841 -84.510935 7.246164 119.044788 11.131366 7.687614 11.239718 1.358215 4.010664 8.481165 0.000000 0.000000 0.000000 7.714495 3.972914 6.695511 3.897148 2.867464 1.507294 0.000000 0.000000 0.000000 2.194129 2.907023 5.432382 -3.590526 -3.852926 11.740466 -5.590969 -16.303240 -9.305924 12.563229 -28.436193 3.039606 0.000000 0.000000 0.000000 1.429211 1.275855 8.243415 -1.682492 5.941164 24.546855 -20.327287 -5.544368 19.634489 -2.893162 37.652340 -7.032537 0.000000 0.000000 0.000000 
109.917610 87.024048 216.029755 0.000000 0.000000 0.000000 -98.675688 1.709730 116.165399 -98.358624 -29.971758 64.550608 88.742237 -6.309582 -3.390714 25.457396 -6.749821 -16.349373 0.000000 0.000000 0.000000 -126.043710 31.737908 118.865946 -96.996520 3.065087 7.119617 65.725701 7.814899 0.225900 6.823532 6.168181 19.556396 0.000000 0.000000 0.000000 -11.614436 0.888512 17.706972 -78.432428 -1.611972 120.542443 11.652670 7.486151 10.891642 1.651492 3.916628 8.267207 0.000000 0.000000 0.000000 7.782885 3.821112 6.381337 3.802325 2.812161 1.320120 0.000000 0.000000 0.000000 2.679528 2.854913 5.250922 -3.287773 -4.034087 11.089849 -4.100906 -15.622695 -10.020712 12.728744 -28.084486 2.742799 0.000000 0.000000 0.000000 1.500705 1.434341 8.257682 -1.958749 5.929589 24.893207 -21.871398 -5.147949 22.325640 -3.755584 40.455463 -5.751727 0.000000 0.000000 0.000000 
112.988930 85.211739 221.177643 0.000000 0.000000 0.000000 -101.476708 -4.119848 122.272626 -99.162394 -33.281442 67.378990 89.241011 -6.020928 -3.508148 26.004046 -6.427120 -16.229501 0.000000 0.000000 0.000000 -127.501464 18.615880 125.431561 -103.461329 -3.550502 15.827763 68.055213 7.636784 -0.192094 7.976562 6.266245 18.941638 0.000000 0.000000 0.000000 -15.008234 4.358164 20.795693 -76.130504 -6.308534 117.971902 11.403179 7.186456 10.694160 1.559553 3.744128 8.142412 0.000000 0.000000 0.000000 8.023299 3.626575 6.108364 3.804504 2.692864 1.177860 0.000000 0.000000 0.000000 2.958629 2.843066 5.229277 -3.204439 -4.015011 11.083188 -2.203082 -14.461759 -10.255332 12.960660 -27.395698 2.650624 0.000000 0.000000 0.000000 1.633964 1.465832 8.128137 -2.109998 5.436590 24.710779 -23.700176 -4.601698 24.496916 -4.745875 43.089649 -4.507860 0.000000 0.000000 0.000000 
116.901154 81.477013 225.674683 0.000000 0.000000 0.000000 -103.539343 -6.121242 123.230054 -100.211989 -35.007178 68.057303 88.353299 -5.636676 -3.933993 25.614772 -5.809882 -16.410670 0.000000 0.000000 0.000000 -129.492532 12.779339 126.688084 -108.223193 -6.459087 19.541402 69.708856 7.044801 -1.112736 8.584907 6.134131 17.121899 0.000000 0.000000 0.000000 -18.503920 8.200014 23.888143 -75.523683 -8.935122 116.921938 11.063127 7.054723 10.658890 1.409639 3.664543 8.109187 0.000000 0.000000 0.000000 7.658741 3.376650 6.313393 3.521863 2.504909 1.332963 0.000000 0.000000 0.000000 2.994359 2.926208 5.269309 -3.315613 -3.904873 11.293537 -2.633814 -13.435324 -10.392187 12.593172 -27.390775 2.755420 0.000000 0.000000 0.000000 1.799113 1.478781 8.051765 -2.083652 4.529493 24.776487 -23.831251 -4.332747 25.985439 -5.003673 44.805894 -3.791996 0.000000 0.000000 0.000000 
122.579010 76.780602 229.653107 0.000000 0.000000 0.000000 -104.817278 -5.127432 124.594248 -99.522454 -35.630857 69.648600 86.353160 -4.434453 -4.129585 24.946996 -4.437532 -15.483219 0.000000 0.000000 0.000000 -128.450873 11.455568 126.325728 -109.328919 -8.761027 22.247396 71.264691 6.183592 -1.593392 10.205919 5.772954 15.660418 0.000000 0.000000 0.000000 -20.984614 11.451496 26.713734 -73.174733 -9.800766 116.114473 10.513777 7.017242 10.959192 1.119859 3.629626 8.291666 0.000000 0.000000 0.000000 7.530014 3.073992 6.479912 3.351737 2.274244 1.474735 0.000000 0.000000 0.000000 3.219309 2.997833 5.247533 -3.242054 -4.050368 11.257743 -2.455187 -12.644784 -10.782163 12.473153 -27.527042 2.876847 0.000000 0.000000 0.000000 2.015500 1.477018 8.032243 -2.023144 3.533520 25.148225 -23.120216 -4.221188 27.773337 -5.002153 45.877582 -3.078299 0.000000 0.000000 0.000000 
126.232979 69.469124 236.315887 0.000000 0.000000 0.000000 -107.782434 -3.073055 126.615957 -99.325902 -35.290163 70.856239 86.345701 -4.366494 -5.470479 25.109059 -3.717469 -17.324404 0.000000 0.000000 0.000000 -127.856743 9.629393 125.368109 -111.037245 -10.658525 23.809121 72.353580 4.865257 -2.096541 10.772509 4.721884 13.699407 0.000000 0.000000 0.000000 -23.691683 16.410870 29.504191 -73.849289 -9.228309 116.455613 9.083417 6.640562 11.455770 0.332207 3.445010 8.524953 0.000000 0.000000 0.000000 7.036697 2.800311 6.758677 3.053484 2.075189 1.703137 0.000000 0.000000 0.000000 3.131791 3.092257 5.263440 -3.419938 -4.100489 11.442374 -5.126459 -11.379548 -11.506190 11.291597 -27.641388 2.806396 0.000000 0.000000 0.000000 2.199963 1.334206 7.987986 -1.892525 1.821095 25.567336 -22.493439 -6.035730 27.539377 -4.800808 44.676373 -3.165738 0.000000 0.000000 0.000000 
131.367935 60.136467 242.692413 0.000000 0.000000 0.000000 -108.791294 -0.202596 128.741607 -97.022427 -35.108552 73.738053 86.312465 -2.875488 -5.919571 25.806552 -1.963267 -16.569392 0.000000 0.000000 0.000000 -126.391257 8.384958 122.908544 -112.596017 -12.595376 24.903560 72.723353 3.661788 -2.515552 10.884119 3.711272 11.928333 0.000000 0.000000 0.000000 -25.300397 21.148718 31.526319 -73.869452 -6.740910 116.071880 8.422811 6.570055 11.715395 -0.045307 3.396431 8.653964 0.000000 0.000000 0.000000 6.610077 2.676885 7.131707 2.739884 1.927882 2.003896 0.000000 0.000000 0.000000 3.048485 3.328306 5.184590 -3.707443 -3.566678 11.310224 -7.702497 -9.659050 -12.776860 10.296765 -28.186562 2.718639 0.000000 0.000000 0.000000 2.528361 1.323074 8.069067 -1.672288 0.339277 26.614898 -21.026715 -7.187983 29.318491 -4.665057 44.993253 -2.472149 0.000000 0.000000 0.000000 
